# xmcd
# 
# Track frame offsets:
#     150
#     22240
#     39355
#     50450
#     97002
#     121045
#     138650
#     152822
#     169215
# 
# Disc length: 2503
# 
# Revision: 4
# Processed by: cddbd v1.5.2PL0 Copyright (c) Steve Scherf et al.
# Submitted via: fre:ac v1.0.31
# 
DISCID=7709c509
DTITLE=Dave Rawlings Machine - A Friend of a Friend
DYEAR=2009
DGENRE=Americana
TTITLE0=Ruby
TTITLE1=To Be Young (is to be sad, to be high)
TTITLE2=I Hear Them All
TTITLE3=Method Acting - Cortez the Killer
TTITLE4=Sweet Tooth
TTITLE5=How's About You
TTITLE6=It's Too Easy
TTITLE7=Monkey and the Engineer
TTITLE8=Bells of Harlem
EXTD=
EXTT0=
EXTT1=
EXTT2=
EXTT3=
EXTT4=
EXTT5=
EXTT6=
EXTT7=
EXTT8=
PLAYORDER=
